<?xml version="1.0" encoding="utf-8"?>
<!-- Generator: Adobe Illustrator 26.5.0, SVG Export Plug-In . SVG Version: 6.00 Build 0)  -->
<svg version="1.1" id="Calque_1" xmlns="http://www.w3.org/2000/svg" xmlns:xlink="http://www.w3.org/1999/xlink" x="0px" y="0px"
	 viewBox="0 0 215.64 67.27" style="enable-background:new 0 0 215.64 67.27;" xml:space="preserve">
<style type="text/css">
	.st0{fill:#FFFFFF;}
</style>
<g>
	<path class="st0" d="M9.79,10.25h8.1v10.89c-1.14,0.38-2.31,0.67-3.53,0.88c-1.22,0.21-2.58,0.31-4.09,0.31
		c-2.2,0-4.07-0.44-5.61-1.31c-1.52-0.88-2.68-2.15-3.47-3.81C0.4,15.53,0,13.52,0,11.17C0,8.9,0.44,6.94,1.32,5.28
		C2.2,3.61,3.48,2.32,5.16,1.41c1.68-0.92,3.72-1.38,6.11-1.38c1.18,0,2.31,0.12,3.41,0.36c1.11,0.23,2.12,0.54,3.04,0.95
		l-1.25,2.94c-0.73-0.35-1.55-0.64-2.46-0.88c-0.91-0.24-1.85-0.36-2.83-0.36c-1.55,0-2.89,0.34-4.02,1.01
		C6.05,4.72,5.19,5.67,4.58,6.9c-0.6,1.22-0.9,2.65-0.9,4.32c0,1.61,0.24,3.03,0.73,4.24c0.48,1.22,1.24,2.17,2.27,2.85
		c1.04,0.67,2.38,1.01,4.02,1.01c0.82,0,1.52-0.04,2.09-0.13c0.57-0.09,1.1-0.19,1.59-0.3v-5.59H9.79V10.25z M29.17,0.34
		c1.87,0,3.41,0.23,4.63,0.68c1.23,0.45,2.14,1.15,2.73,2.08c0.6,0.93,0.9,2.11,0.9,3.54c0,1.07-0.2,1.98-0.59,2.73
		c-0.4,0.75-0.91,1.37-1.56,1.87c-0.64,0.49-1.33,0.89-2.06,1.19l6.16,9.6h-4.02l-5.24-8.69h-3.49v8.69h-3.56V0.34H29.17z
		 M28.94,3.31h-2.3v7.09h2.46c1.65,0,2.85-0.31,3.59-0.92c0.75-0.61,1.13-1.52,1.13-2.71c0-1.26-0.4-2.15-1.2-2.67
		C31.82,3.57,30.6,3.31,28.94,3.31z M61.73,11.15c0,1.67-0.21,3.19-0.64,4.57c-0.42,1.36-1.04,2.54-1.88,3.53
		c-0.84,0.98-1.89,1.74-3.16,2.27c-1.27,0.53-2.75,0.8-4.45,0.8c-1.73,0-3.23-0.27-4.51-0.8c-1.27-0.53-2.32-1.3-3.16-2.28
		c-0.83-0.99-1.45-2.17-1.87-3.54c-0.42-1.37-0.62-2.9-0.62-4.57c0-2.23,0.37-4.18,1.1-5.84c0.74-1.67,1.86-2.97,3.37-3.89
		C47.42,0.46,49.32,0,51.63,0c2.25,0,4.13,0.46,5.62,1.38c1.49,0.92,2.61,2.21,3.35,3.89C61.35,6.93,61.73,8.89,61.73,11.15z
		 M45.18,11.15c0,1.67,0.23,3.12,0.68,4.35c0.45,1.22,1.15,2.16,2.09,2.82c0.95,0.65,2.17,0.98,3.65,0.98
		c1.49,0,2.71-0.33,3.65-0.98c0.94-0.66,1.63-1.6,2.08-2.82c0.44-1.23,0.67-2.67,0.67-4.35c0-2.54-0.51-4.53-1.53-5.96
		c-1.01-1.44-2.62-2.17-4.84-2.17c-1.48,0-2.7,0.33-3.66,0.98c-0.95,0.65-1.65,1.59-2.11,2.8C45.4,8.01,45.18,9.46,45.18,11.15z
		 M78.9,16.12c0,1.29-0.32,2.39-0.95,3.32c-0.62,0.93-1.52,1.64-2.7,2.14c-1.17,0.49-2.56,0.74-4.18,0.74
		c-0.79,0-1.55-0.04-2.27-0.13c-0.72-0.09-1.4-0.22-2.05-0.39c-0.63-0.18-1.21-0.39-1.74-0.64v-3.35c0.88,0.39,1.86,0.74,2.95,1.05
		c1.09,0.31,2.19,0.46,3.32,0.46c0.92,0,1.68-0.12,2.28-0.36c0.61-0.25,1.07-0.59,1.36-1.04c0.3-0.45,0.44-0.98,0.44-1.59
		c0-0.64-0.17-1.19-0.52-1.63c-0.35-0.44-0.87-0.85-1.57-1.22c-0.69-0.38-1.56-0.78-2.61-1.2c-0.71-0.29-1.39-0.61-2.05-0.98
		c-0.64-0.37-1.22-0.8-1.72-1.29c-0.5-0.49-0.9-1.08-1.2-1.75c-0.29-0.68-0.43-1.48-0.43-2.4c0-1.23,0.29-2.27,0.88-3.14
		c0.59-0.87,1.42-1.54,2.49-2c1.08-0.46,2.33-0.7,3.77-0.7c1.14,0,2.2,0.12,3.2,0.36c1.01,0.24,2,0.57,2.97,1.01l-1.13,2.86
		c-0.89-0.37-1.76-0.66-2.6-0.88c-0.83-0.22-1.68-0.33-2.55-0.33c-0.75,0-1.39,0.11-1.91,0.34c-0.52,0.23-0.92,0.55-1.2,0.96
		c-0.27,0.41-0.4,0.89-0.4,1.45c0,0.63,0.15,1.17,0.46,1.6c0.32,0.43,0.8,0.82,1.45,1.17c0.66,0.36,1.51,0.75,2.55,1.19
		c1.2,0.49,2.21,1.01,3.04,1.56c0.84,0.54,1.48,1.2,1.93,1.96C78.68,14.04,78.9,14.98,78.9,16.12z M95.6,16.12
		c0,1.29-0.32,2.39-0.95,3.32c-0.62,0.93-1.52,1.64-2.7,2.14c-1.17,0.49-2.56,0.74-4.18,0.74c-0.79,0-1.55-0.04-2.27-0.13
		c-0.72-0.09-1.4-0.22-2.05-0.39c-0.63-0.18-1.21-0.39-1.74-0.64v-3.35c0.88,0.39,1.86,0.74,2.95,1.05c1.09,0.31,2.2,0.46,3.32,0.46
		c0.92,0,1.68-0.12,2.28-0.36c0.61-0.25,1.07-0.59,1.36-1.04c0.3-0.45,0.44-0.98,0.44-1.59c0-0.64-0.17-1.19-0.52-1.63
		c-0.35-0.44-0.87-0.85-1.57-1.22c-0.69-0.38-1.56-0.78-2.61-1.2c-0.71-0.29-1.39-0.61-2.05-0.98c-0.64-0.37-1.22-0.8-1.72-1.29
		c-0.5-0.49-0.9-1.08-1.2-1.75c-0.29-0.68-0.43-1.48-0.43-2.4c0-1.23,0.29-2.27,0.88-3.14c0.59-0.87,1.42-1.54,2.49-2
		c1.08-0.46,2.33-0.7,3.77-0.7c1.14,0,2.21,0.12,3.2,0.36c1.01,0.24,2,0.57,2.97,1.01l-1.13,2.86c-0.89-0.37-1.75-0.66-2.6-0.88
		c-0.83-0.22-1.68-0.33-2.55-0.33c-0.75,0-1.39,0.11-1.91,0.34c-0.52,0.23-0.92,0.55-1.2,0.96c-0.27,0.41-0.4,0.89-0.4,1.45
		c0,0.63,0.15,1.17,0.46,1.6c0.32,0.43,0.8,0.82,1.45,1.17c0.66,0.36,1.51,0.75,2.55,1.19c1.2,0.49,2.21,1.01,3.04,1.56
		c0.84,0.54,1.48,1.2,1.93,1.96C95.38,14.04,95.6,14.98,95.6,16.12z M119.04,11.15c0,1.67-0.21,3.19-0.64,4.57
		c-0.42,1.36-1.04,2.54-1.88,3.53c-0.84,0.98-1.89,1.74-3.16,2.27c-1.27,0.53-2.75,0.8-4.45,0.8c-1.73,0-3.23-0.27-4.51-0.8
		c-1.27-0.53-2.32-1.3-3.16-2.28c-0.83-0.99-1.45-2.17-1.87-3.54s-0.62-2.9-0.62-4.57c0-2.23,0.37-4.18,1.1-5.84
		c0.74-1.67,1.86-2.97,3.37-3.89c1.51-0.93,3.42-1.39,5.72-1.39c2.25,0,4.13,0.46,5.62,1.38c1.49,0.92,2.61,2.21,3.35,3.89
		C118.66,6.93,119.04,8.89,119.04,11.15z M102.48,11.15c0,1.67,0.23,3.12,0.68,4.35c0.45,1.22,1.15,2.16,2.09,2.82
		c0.95,0.65,2.17,0.98,3.65,0.98c1.49,0,2.71-0.33,3.65-0.98c0.94-0.66,1.63-1.6,2.08-2.82c0.44-1.23,0.67-2.67,0.67-4.35
		c0-2.54-0.51-4.53-1.53-5.96c-1.01-1.44-2.62-2.17-4.83-2.17c-1.48,0-2.7,0.33-3.66,0.98c-0.95,0.65-1.65,1.59-2.11,2.8
		C102.71,8.01,102.48,9.46,102.48,11.15z"/>
	<path class="st0" d="M68.14,28.35h7.54l8.57,26.71l8.57-26.71h7.54L87.31,66.74h-6.12L68.14,28.35z M63.55,28.35h7.8l1.45,29.43
		v8.96h-9.25V28.35z M97.14,28.35h7.83v38.39h-9.28v-8.96L97.14,28.35z M143.39,46.78v1.56c0,2.94-0.41,5.57-1.24,7.91
		c-0.81,2.32-1.96,4.31-3.45,5.96c-1.49,1.63-3.26,2.89-5.3,3.77c-2.04,0.86-4.29,1.29-6.75,1.29c-2.48,0-4.75-0.43-6.8-1.29
		c-2.04-0.88-3.81-2.14-5.33-3.77c-1.49-1.65-2.65-3.64-3.48-5.96c-0.81-2.34-1.21-4.97-1.21-7.91v-1.56c0-2.94,0.4-5.57,1.21-7.91
		c0.83-2.34,1.98-4.32,3.45-5.96c1.49-1.65,3.26-2.91,5.3-3.77c2.06-0.88,4.32-1.32,6.8-1.32c2.46,0,4.71,0.44,6.75,1.32
		c2.06,0.86,3.83,2.12,5.33,3.77c1.49,1.63,2.65,3.62,3.48,5.96C142.98,41.21,143.39,43.85,143.39,46.78z M134.01,48.34v-1.61
		c0-1.9-0.17-3.57-0.5-5.01c-0.32-1.46-0.79-2.68-1.42-3.66c-0.63-0.98-1.42-1.72-2.35-2.21c-0.91-0.51-1.96-0.76-3.14-0.76
		c-1.23,0-2.3,0.25-3.22,0.76c-0.91,0.49-1.68,1.23-2.29,2.21c-0.62,0.98-1.08,2.21-1.4,3.66c-0.3,1.44-0.45,3.11-0.45,5.01v1.61
		c0,1.88,0.15,3.55,0.45,5.01c0.32,1.44,0.78,2.66,1.4,3.67c0.63,1,1.41,1.76,2.32,2.27c0.93,0.51,2.01,0.76,3.24,0.76
		c1.18,0,2.22-0.25,3.14-0.76c0.91-0.51,1.68-1.27,2.29-2.27c0.63-1,1.11-2.22,1.42-3.67C133.84,51.89,134.01,50.22,134.01,48.34z
		 M160.66,66.74h-8.52l0.05-7.12h8.46c1.76,0,3.24-0.42,4.46-1.27c1.23-0.84,2.16-2.1,2.79-3.77c0.65-1.69,0.98-3.76,0.98-6.22V46.7
		c0-1.85-0.18-3.46-0.55-4.85c-0.35-1.41-0.88-2.58-1.58-3.51c-0.7-0.95-1.58-1.66-2.64-2.14c-1.04-0.47-2.23-0.71-3.59-0.71h-8.54
		v-7.15h8.54c2.6,0,4.98,0.45,7.15,1.34c2.18,0.88,4.06,2.14,5.64,3.8c1.6,1.63,2.83,3.58,3.69,5.83c0.88,2.23,1.32,4.71,1.32,7.44
		v1.61c0,2.71-0.44,5.19-1.32,7.44c-0.86,2.25-2.08,4.19-3.67,5.83c-1.58,1.63-3.45,2.9-5.62,3.8
		C165.58,66.3,163.23,66.74,160.66,66.74z M157.44,28.35v38.39h-9.25V28.35H157.44z M215.64,46.78v1.56c0,2.94-0.41,5.57-1.24,7.91
		c-0.81,2.32-1.96,4.31-3.45,5.96c-1.49,1.63-3.26,2.89-5.3,3.77c-2.04,0.86-4.29,1.29-6.75,1.29c-2.48,0-4.75-0.43-6.8-1.29
		c-2.04-0.88-3.81-2.14-5.33-3.77c-1.49-1.65-2.65-3.64-3.48-5.96c-0.81-2.34-1.21-4.97-1.21-7.91v-1.56c0-2.94,0.4-5.57,1.21-7.91
		c0.83-2.34,1.98-4.32,3.45-5.96c1.49-1.65,3.26-2.91,5.3-3.77c2.06-0.88,4.32-1.32,6.8-1.32c2.46,0,4.71,0.44,6.75,1.32
		c2.06,0.86,3.83,2.12,5.33,3.77c1.49,1.63,2.65,3.62,3.48,5.96C215.22,41.21,215.64,43.85,215.64,46.78z M206.25,48.34v-1.61
		c0-1.9-0.17-3.57-0.5-5.01c-0.32-1.46-0.79-2.68-1.42-3.66c-0.63-0.98-1.41-1.72-2.35-2.21c-0.91-0.51-1.96-0.76-3.14-0.76
		c-1.23,0-2.3,0.25-3.22,0.76c-0.91,0.49-1.68,1.23-2.29,2.21c-0.62,0.98-1.08,2.21-1.4,3.66c-0.3,1.44-0.45,3.11-0.45,5.01v1.61
		c0,1.88,0.15,3.55,0.45,5.01c0.32,1.44,0.78,2.66,1.4,3.67c0.63,1,1.41,1.76,2.32,2.27c0.93,0.51,2.01,0.76,3.24,0.76
		c1.18,0,2.22-0.25,3.14-0.76c0.91-0.51,1.68-1.27,2.29-2.27c0.63-1,1.11-2.22,1.42-3.67C206.08,51.89,206.25,50.22,206.25,48.34z"
		/>
</g>
</svg>
